M48
; DRILL file {KiCad (5.1.4-0-10_14)} date Wednesday, December 04, 2019 at 09:11:56 PM
; FORMAT={-:-/ absolute / metric / decimal}
; #@! TF.CreationDate,2019-12-04T21:11:56-08:00
; #@! TF.GenerationSoftware,Kicad,Pcbnew,(5.1.4-0-10_14)
; #@! TF.FileFunction,Plated,1,2,PTH
FMAT,2
METRIC
T1C1.000
%
G90
G05
T1
X134.15Y-56.172
X134.15Y-58.712
X134.15Y-61.252
X134.15Y-63.792
X134.15Y-66.332
X134.15Y-68.872
X134.15Y-71.412
X134.15Y-73.952
X134.15Y-76.492
X134.15Y-79.032
X150.965Y-56.159
X150.965Y-58.699
X150.965Y-61.239
X150.965Y-63.779
X150.965Y-66.319
X150.965Y-68.859
X150.965Y-71.399
X150.965Y-73.939
X150.965Y-76.479
X150.965Y-79.019
T0
M30
