G04 #@! TF.GenerationSoftware,KiCad,Pcbnew,(5.1.4-0-10_14)*
G04 #@! TF.CreationDate,2019-12-04T21:12:01-08:00*
G04 #@! TF.ProjectId,SO20,534f3230-2e6b-4696-9361-645f70636258,rev?*
G04 #@! TF.SameCoordinates,Original*
G04 #@! TF.FileFunction,Copper,L1,Top*
G04 #@! TF.FilePolarity,Positive*
%FSLAX46Y46*%
G04 Gerber Fmt 4.6, Leading zero omitted, Abs format (unit mm)*
G04 Created by KiCad (PCBNEW (5.1.4-0-10_14)) date 2019-12-04 21:12:01*
%MOMM*%
%LPD*%
G04 APERTURE LIST*
%ADD10R,1.700000X1.700000*%
%ADD11O,1.700000X1.700000*%
%ADD12R,1.500000X0.600000*%
%ADD13C,0.508000*%
G04 APERTURE END LIST*
D10*
X134150100Y-56172100D03*
D11*
X134150100Y-58712100D03*
X134150100Y-61252100D03*
X134150100Y-63792100D03*
X134150100Y-66332100D03*
X134150100Y-68872100D03*
X134150100Y-71412100D03*
X134150100Y-73952100D03*
X134150100Y-76492100D03*
X134150100Y-79032100D03*
X150964900Y-56159400D03*
X150964900Y-58699400D03*
X150964900Y-61239400D03*
X150964900Y-63779400D03*
X150964900Y-66319400D03*
X150964900Y-68859400D03*
X150964900Y-71399400D03*
X150964900Y-73939400D03*
X150964900Y-76479400D03*
D10*
X150964900Y-79019400D03*
D12*
X137782100Y-68173600D03*
X137782100Y-66903600D03*
X137782100Y-65633600D03*
X137782100Y-64363600D03*
X137782100Y-63093600D03*
X137782100Y-61823600D03*
X137782100Y-69443600D03*
X137782100Y-70713600D03*
X137782100Y-71983600D03*
X137782100Y-73253600D03*
X147282100Y-73253600D03*
X147282100Y-71983600D03*
X147282100Y-70713600D03*
X147282100Y-69443600D03*
X147282100Y-68173600D03*
X147282100Y-66903600D03*
X147282100Y-65633600D03*
X147282100Y-64363600D03*
X147282100Y-63093600D03*
X147282100Y-61823600D03*
D13*
X137782100Y-61823600D02*
X137782100Y-56832300D01*
X137121900Y-56172100D02*
X134150100Y-56172100D01*
X137782100Y-56832300D02*
X137121900Y-56172100D01*
X136524100Y-63093600D02*
X136359900Y-62929400D01*
X137782100Y-63093600D02*
X136524100Y-63093600D01*
X136359900Y-60921900D02*
X134150100Y-58712100D01*
X136359900Y-62929400D02*
X136359900Y-60921900D01*
X135000099Y-62102099D02*
X134150100Y-61252100D01*
X135000099Y-62712177D02*
X135000099Y-62102099D01*
X136651522Y-64363600D02*
X135000099Y-62712177D01*
X137782100Y-64363600D02*
X136651522Y-64363600D01*
X135991600Y-65633600D02*
X134150100Y-63792100D01*
X137782100Y-65633600D02*
X135991600Y-65633600D01*
X134721600Y-66903600D02*
X134150100Y-66332100D01*
X137782100Y-66903600D02*
X134721600Y-66903600D01*
X148486101Y-61178199D02*
X150114901Y-59549399D01*
X148486101Y-62486801D02*
X148486101Y-61178199D01*
X147879302Y-63093600D02*
X148486101Y-62486801D01*
X150114901Y-59549399D02*
X150964900Y-58699400D01*
X147282100Y-63093600D02*
X147879302Y-63093600D01*
X134848600Y-68173600D02*
X134150100Y-68872100D01*
X137782100Y-68173600D02*
X134848600Y-68173600D01*
X136118600Y-69443600D02*
X134150100Y-71412100D01*
X137782100Y-69443600D02*
X136118600Y-69443600D01*
X135000099Y-73102101D02*
X134150100Y-73952100D01*
X137332100Y-70713600D02*
X135000099Y-73045601D01*
X135000099Y-73045601D02*
X135000099Y-73102101D01*
X137782100Y-70713600D02*
X137332100Y-70713600D01*
X135454101Y-75188099D02*
X135000099Y-75642101D01*
X135000099Y-75642101D02*
X134150100Y-76492100D01*
X135454101Y-73861599D02*
X135454101Y-75188099D01*
X137332100Y-71983600D02*
X135454101Y-73861599D01*
X137782100Y-71983600D02*
X137332100Y-71983600D01*
X137782100Y-75400100D02*
X134150100Y-79032100D01*
X137782100Y-73253600D02*
X137782100Y-75400100D01*
X147282100Y-59842200D02*
X150964900Y-56159400D01*
X147282100Y-61823600D02*
X147282100Y-59842200D01*
X147840700Y-64363600D02*
X147282100Y-64363600D01*
X150964900Y-61239400D02*
X147840700Y-64363600D01*
X149110700Y-65633600D02*
X147282100Y-65633600D01*
X150964900Y-63779400D02*
X149110700Y-65633600D01*
X150380700Y-66903600D02*
X147282100Y-66903600D01*
X150964900Y-66319400D02*
X150380700Y-66903600D01*
X150279100Y-68173600D02*
X147282100Y-68173600D01*
X150964900Y-68859400D02*
X150279100Y-68173600D01*
X149009100Y-69443600D02*
X147282100Y-69443600D01*
X150964900Y-71399400D02*
X149009100Y-69443600D01*
X147739100Y-70713600D02*
X147282100Y-70713600D01*
X150964900Y-73939400D02*
X147739100Y-70713600D01*
X147732100Y-71983600D02*
X147282100Y-71983600D01*
X149660899Y-73912399D02*
X147732100Y-71983600D01*
X149660899Y-75175399D02*
X149660899Y-73912399D01*
X150964900Y-76479400D02*
X149660899Y-75175399D01*
X147282100Y-76694600D02*
X147282100Y-74061600D01*
X149606900Y-79019400D02*
X147282100Y-76694600D01*
X147282100Y-74061600D02*
X147282100Y-73253600D01*
X150964900Y-79019400D02*
X149606900Y-79019400D01*
M02*
